HIERARCHY
ROOT Reference
{
  OFFSET 0 0 0
  CHANNELS 6 Xposition Yposition Zposition Zrotation Xrotation Yrotation
  JOINT Hips
  {
    OFFSET 251.394 724.17 483.536
    CHANNELS 3 Zrotation Xrotation Yrotation
    JOINT RightUpLeg
    {
      OFFSET -0.450515 -23.4426 -1.37224
      CHANNELS 3 Zrotation Xrotation Yrotation
      JOINT RightLeg
      {
        OFFSET 112.821 0.0872427 -0.321027
        CHANNELS 3 Zrotation Xrotation Yrotation
        JOINT RightFoot
        {
          OFFSET 105.718 0.000193788 0.0213165
          CHANNELS 3 Zrotation Xrotation Yrotation
          JOINT RightToeBase
          {
            OFFSET 37.638 -0.000116272 0.00224792
            CHANNELS 3 Zrotation Xrotation Yrotation
            JOINT RightToeEnd
            {
              OFFSET 21.2112 0.114605 -0.000138184
              CHANNELS 3 Zrotation Xrotation Yrotation
              End Site
              {
                OFFSET 0 0 0
              }
            }
          }
        }
      }
    }
    JOINT LeftUpLeg
    {
      OFFSET -0.449508 23.4315 -1.37054
      CHANNELS 3 Zrotation Xrotation Yrotation
      JOINT LeftLeg
      {
        OFFSET 112.821 -0.0485242 -0.372458
        CHANNELS 3 Zrotation Xrotation Yrotation
        JOINT LeftFoot
        {
          OFFSET 105.716 0.00496094 -0.0229443
          CHANNELS 3 Zrotation Xrotation Yrotation
          JOINT LeftToeBase
          {
            OFFSET 37.639 0 0.00158905
            CHANNELS 3 Zrotation Xrotation Yrotation
            JOINT LeftToeEnd
            {
              OFFSET 21.2113 -0.125031 -0.00017438
              CHANNELS 3 Zrotation Xrotation Yrotation
              End Site
              {
                OFFSET 0 0 0
              }
            }
          }
        }
      }
    }
    JOINT Spine
    {
      OFFSET -5.01225 0.000463591 -9.60395
      CHANNELS 3 Zrotation Xrotation Yrotation
      JOINT Spine1
      {
        OFFSET 26.0222 -0.000271301 -0.000155029
        CHANNELS 3 Zrotation Xrotation Yrotation
        JOINT Spine2
        {
          OFFSET 27.173 -0.000155029 -0.000310058
          CHANNELS 3 Zrotation Xrotation Yrotation
          JOINT Spine3
          {
            OFFSET 36.3953 -0.000232544 7.75146e-005
            CHANNELS 3 Zrotation Xrotation Yrotation
            JOINT Neck
            {
              OFFSET 36.4331 0 -3.00261
              CHANNELS 3 Zrotation Xrotation Yrotation
              JOINT Head
              {
                OFFSET 23.0407 -0.000232544 -0.000310058
                CHANNELS 3 Zrotation Xrotation Yrotation
                End Site
                {
                  OFFSET 0 0 0
                }
              }
            }
            JOINT LeftShoulder
            {
              OFFSET 20.1317 6.74168 -12.6061
              CHANNELS 3 Zrotation Xrotation Yrotation
              JOINT LeftArm
              {
                OFFSET 34.2172 -5.81359e-005 7.75146e-005
                CHANNELS 3 Zrotation Xrotation Yrotation
                JOINT LeftForeArm
                {
                  OFFSET 65.4129 -0.0821605 0.0585235
                  CHANNELS 3 Zrotation Xrotation Yrotation
                  JOINT LeftHand
                  {
                    OFFSET 67.3883 0.0359667 0.0112396
                    CHANNELS 3 Zrotation Xrotation Yrotation
                    JOINT LeftHandThumb1
                    {
                      OFFSET 8.78386 2.85353 -6.05362
                      CHANNELS 3 Zrotation Xrotation Yrotation
                      JOINT LeftHandThumb2
                      {
                        OFFSET 8.25498 -0.000116272 -0.000174407
                        CHANNELS 3 Zrotation Xrotation Yrotation
                        JOINT LeftHandThumb3
                        {
                          OFFSET 7.24822 0.000310058 5.81358e-005
                          CHANNELS 3 Zrotation Xrotation Yrotation
                          JOINT LeftHandThumb4
                          {
                            OFFSET 7.0004 -3.87568e-005 -0.000310057
                            CHANNELS 3 Zrotation Xrotation Yrotation
                            End Site
                            {
                              OFFSET 0 0 0
                            }
                          }
                        }
                      }
                    }
                    JOINT LeftHandIndex1
                    {
                      OFFSET 24.0991 -1.01537 -5.40558
                      CHANNELS 3 Zrotation Xrotation Yrotation
                      JOINT LeftHandIndex2
                      {
                        OFFSET 7.26759 -0.000290679 -0.000465086
                        CHANNELS 3 Zrotation Xrotation Yrotation
                        JOINT LeftHandIndex3
                        {
                          OFFSET 7.13628 -1.93787e-005 0.000232543
                          CHANNELS 3 Zrotation Xrotation Yrotation
                          JOINT LeftHandIndex4
                          {
                            OFFSET 5.46699 9.68932e-005 -0.000387571
                            CHANNELS 3 Zrotation Xrotation Yrotation
                            End Site
                            {
                              OFFSET 0 0 0
                            }
                          }
                        }
                      }
                    }
                    JOINT LeftHandMiddle1
                    {
                      OFFSET 24.4604 -2.52837 0.918567
                      CHANNELS 3 Zrotation Xrotation Yrotation
                      JOINT LeftHandMiddle2
                      {
                        OFFSET 7.41627 -5.81359e-005 0.000116271
                        CHANNELS 3 Zrotation Xrotation Yrotation
                        JOINT LeftHandMiddle3
                        {
                          OFFSET 8.76829 3.87573e-005 -7.75142e-005
                          CHANNELS 3 Zrotation Xrotation Yrotation
                          JOINT LeftHandMiddle4
                          {
                            OFFSET 6.07588 -0.00013565 -5.81356e-005
                            CHANNELS 3 Zrotation Xrotation Yrotation
                            End Site
                            {
                              OFFSET 0 0 0
                            }
                          }
                        }
                      }
                    }
                    JOINT LeftHandRing1
                    {
                      OFFSET 22.465 -1.97467 6.3466
                      CHANNELS 3 Zrotation Xrotation Yrotation
                      JOINT LeftHandRing2
                      {
                        OFFSET 7.36666 -0.000232544 0.000387571
                        CHANNELS 3 Zrotation Xrotation Yrotation
                        JOINT LeftHandRing3
                        {
                          OFFSET 8.07624 -0.000465087 -0.000203475
                          CHANNELS 3 Zrotation Xrotation Yrotation
                          JOINT LeftHandRing4
                          {
                            OFFSET 6.04433 0.00013565 3.87571e-005
                            CHANNELS 3 Zrotation Xrotation Yrotation
                            End Site
                            {
                              OFFSET 0 0 0
                            }
                          }
                        }
                      }
                    }
                    JOINT LeftHandPinky1
                    {
                      OFFSET 19.5278 0.352933 10.4295
                      CHANNELS 3 Zrotation Xrotation Yrotation
                      JOINT LeftHandPinky2
                      {
                        OFFSET 6.16525 5.8136e-005 -0.000251921
                        CHANNELS 3 Zrotation Xrotation Yrotation
                        JOINT LeftHandPinky3
                        {
                          OFFSET 6.14448 -0.000329434 -0.00510625
                          CHANNELS 3 Zrotation Xrotation Yrotation
                          JOINT LeftHandPinky4
                          {
                            OFFSET 4.98555 0.000116272 0.000116271
                            CHANNELS 3 Zrotation Xrotation Yrotation
                            End Site
                            {
                              OFFSET 0 0 0
                            }
                          }
                        }
                      }
                    }
                  }
                }
              }
            }
            JOINT RightShoulder
            {
              OFFSET 20.1309 -6.74152 -12.6063
              CHANNELS 3 Zrotation Xrotation Yrotation
              JOINT RightArm
              {
                OFFSET 34.2171 7.75146e-005 7.75146e-005
                CHANNELS 3 Zrotation Xrotation Yrotation
                JOINT RightForeArm
                {
                  OFFSET 65.4492 0.242543 -0.176501
                  CHANNELS 3 Zrotation Xrotation Yrotation
                  JOINT RightHand
                  {
                    OFFSET 67.3888 -0.0867388 0.0597442
                    CHANNELS 3 Zrotation Xrotation Yrotation
                    JOINT RightHandThumb1
                    {
                      OFFSET 8.78307 -2.85357 -6.05302
                      CHANNELS 3 Zrotation Xrotation Yrotation
                      JOINT RightHandThumb2
                      {
                        OFFSET 8.25493 -7.75145e-005 0
                        CHANNELS 3 Zrotation Xrotation Yrotation
                        JOINT RightHandThumb3
                        {
                          OFFSET 7.24797 -0.000174408 0.000155029
                          CHANNELS 3 Zrotation Xrotation Yrotation
                          JOINT RightHandThumb4
                          {
                            OFFSET 7.00062 0 0
                            CHANNELS 3 Zrotation Xrotation Yrotation
                            End Site
                            {
                              OFFSET 0 0 0
                            }
                          }
                        }
                      }
                    }
                    JOINT RightHandIndex1
                    {
                      OFFSET 24.0991 1.01525 -5.40578
                      CHANNELS 3 Zrotation Xrotation Yrotation
                      JOINT RightHandIndex2
                      {
                        OFFSET 7.26773 7.75144e-005 0.000232543
                        CHANNELS 3 Zrotation Xrotation Yrotation
                        JOINT RightHandIndex3
                        {
                          OFFSET 7.13572 -0.000310058 3.87571e-005
                          CHANNELS 3 Zrotation Xrotation Yrotation
                          JOINT RightHandIndex4
                          {
                            OFFSET 5.46717 0 3.87572e-005
                            CHANNELS 3 Zrotation Xrotation Yrotation
                            End Site
                            {
                              OFFSET 0 0 0
                            }
                          }
                        }
                      }
                    }
                    JOINT RightHandMiddle1
                    {
                      OFFSET 24.4603 2.52899 0.918547
                      CHANNELS 3 Zrotation Xrotation Yrotation
                      JOINT RightHandMiddle2
                      {
                        OFFSET 7.41641 -0.000116272 -0.000116272
                        CHANNELS 3 Zrotation Xrotation Yrotation
                        JOINT RightHandMiddle3
                        {
                          OFFSET 8.76765 -3.87577e-005 0.000232543
                          CHANNELS 3 Zrotation Xrotation Yrotation
                          JOINT RightHandMiddle4
                          {
                            OFFSET 6.07609 -0.000193787 -0.000116271
                            CHANNELS 3 Zrotation Xrotation Yrotation
                            End Site
                            {
                              OFFSET 0 0 0
                            }
                          }
                        }
                      }
                    }
                    JOINT RightHandRing1
                    {
                      OFFSET 22.465 1.97571 6.34696
                      CHANNELS 3 Zrotation Xrotation Yrotation
                      JOINT RightHandRing2
                      {
                        OFFSET 7.36684 0.000193786 0.000155029
                        CHANNELS 3 Zrotation Xrotation Yrotation
                        JOINT RightHandRing3
                        {
                          OFFSET 8.07614 -0.000271301 0
                          CHANNELS 3 Zrotation Xrotation Yrotation
                          JOINT RightHandRing4
                          {
                            OFFSET 6.04468 0.000232543 0
                            CHANNELS 3 Zrotation Xrotation Yrotation
                            End Site
                            {
                              OFFSET 0 0 0
                            }
                          }
                        }
                      }
                    }
                    JOINT RightHandPinky1
                    {
                      OFFSET 19.5277 -0.352346 10.4296
                      CHANNELS 3 Zrotation Xrotation Yrotation
                      JOINT RightHandPinky2
                      {
                        OFFSET 6.16508 0 0.000232543
                        CHANNELS 3 Zrotation Xrotation Yrotation
                        JOINT RightHandPinky3
                        {
                          OFFSET 6.14396 -0.000155048 -0.0048834
                          CHANNELS 3 Zrotation Xrotation Yrotation
                          JOINT RightHandPinky4
                          {
                            OFFSET 4.98577 -7.75146e-005 -7.75143e-005
                            CHANNELS 3 Zrotation Xrotation Yrotation
                            End Site
                            {
                              OFFSET 0 0 0
                            }
                          }
                        }
                      }
                    }
                  }
                }
              }
            }
          }
        }
      }
    }
  }
}
MOTION
Frames:	4
Frame Time:	0.0333333
0 0 0 -90 -7.01671e-015 -180 -2.78509 -2.75095 -112.441 -176.676 -12.1517 -103.51 -0.183922 -0.40624 -22.6167 -3.30007 -2.68759 48.0482 -0.571741 0.104699 57.7613 3.69068e-005 2.76215e-005 -86.4974 175.55 -1.91861 -105.273 -0.0167047 -0.059546 -19.8759 0.870253 -6.90445 46.9747 0.581512 -0.122587 56.7844 -9.64935e-005 -9.08495e-006 -86.4974 -2.66163e-005 4.00502e-005 121.665 -0.0307892 0.360225 -14.5349 1.49266 0.654237 -14.4864 -0.894437 2.28072 6.05231 -0.371569 1.3137 24.7691 3.54482 -2.11848 46.3679 105.103 23.2639 -22.6407 59.8149 22.2035 22.3195 -9.57036 19.1627 40.7447 -9.66864 -4.91969 -0.240779 -158.644 -1.25061 154.969 0.000475114 0.000147151 18.1946 0.000320164 -2.07486e-005 11.959 0.000322299 -0.0014448 -0.000109279 36.0643 86.5085 -17.7556 -0.000466327 -0.000456111 14.4454 0.00117584 -0.000783348 10.5801 -0.00064257 -0.000437356 -2.32874 -1.69353 86.8812 35.2102 2.37864e-005 -0.000164983 17.605 0.00109409 -0.000768658 18.4312 -0.000583509 -0.000174246 -2.32823 -63.4312 87.7466 103.217 0.000181459 -0.000791172 21.6994 0.0015315 -0.000238445 22.5462 -0.000678979 -0.000755641 -2.32752 -63.1795 86.0904 102.721 0.00132164 -0.00127209 24.117 9.41179e-005 -6.12081e-005 22.3014 -2.97266e-005 -0.00011638 -2.32871 -102.311 -22.8567 -25.4012 -65.4009 -20.2329 13.6193 9.72953 -13.1122 34.8296 3.65152 12.8388 -4.07422 158.644 1.2506 151.962 2.65339e-005 0.000222327 15.1881 0.000259148 0.000221183 8.95278 -0.000228882 -0.000137329 -180 -36.0674 -86.5084 -23.3842 -0.000341 -0.000204127 8.82135 0.000300215 0.000125668 4.95718 -9.09329e-005 1.52462e-005 177.672 1.69071 -86.8814 29.5838 5.16066e-005 3.32239e-005 11.9805 1.20188e-005 0.000167273 12.8066 -0.000207424 0.000152462 177.672 63.4313 -87.7471 97.5947 0.000198062 -0.000257628 16.0747 -5.609e-007 0.000413547 16.9212 1.23979e-006 3.04924e-005 177.672 63.1803 -86.0906 97.0988 -0.000141301 0.000308739 18.4917 0.000152838 3.99294e-005 16.6768 -0.000227642 3.04924e-005 177.672 
0 0 0 -90 -7.01671e-015 -180 -2.78325 -2.76318 -112.238 -176.663 -12.1228 -103.3 -0.17887 -0.394077 -22.6183 -3.301 -2.67873 48.0431 -0.571741 0.104698 57.7613 3.69147e-005 2.41342e-005 -86.4974 175.547 -1.9271 -105.065 -0.0172387 -0.0610145 -19.8788 0.871194 -6.90433 46.9735 0.581512 -0.122587 56.7844 -9.64948e-005 -8.99493e-006 -86.4974 -0.00187155 0.000680869 121.665 -0.024492 0.361644 -14.6084 1.4991 0.655396 -14.56 -0.885773 2.2846 5.97862 -0.409537 1.29397 25.1847 3.5224 -2.09876 46.768 105.116 23.2577 -22.6802 59.985 21.6506 21.7992 -9.50375 18.0352 40.4385 -9.66923 -4.99223 -0.271606 -158.648 -1.24839 154.963 0.000473367 0.000147363 18.2045 0.000320899 -1.76386e-005 11.9693 0.000324308 -0.00143489 -0.0453379 36.1108 86.5059 -17.81 0.00327569 0.00051087 14.4562 0.0049735 -7.20947e-005 10.591 0.0335395 -0.0017943 -2.32912 -1.69368 86.8812 35.2026 8.64043e-006 -0.000172329 17.6049 0.00109441 -0.000773104 18.4312 -0.000583509 -0.000179595 -2.32823 -63.4211 87.7462 103.197 0.000177554 -0.000796068 21.6941 0.00153056 -0.00024208 22.5392 -0.000678997 -0.000759754 -2.32752 -63.1809 86.0907 102.707 0.00132301 -0.00127163 24.1084 0.000430697 7.43125e-005 22.2963 -3.00828e-005 -0.000121695 -2.32871 -102.306 -22.8587 -25.3971 -65.3232 -20.3055 13.6528 9.74444 -13.3295 34.9537 3.58181 12.8019 -4.03568 158.641 1.2518 151.987 2.62922e-005 0.000221487 15.1939 0.000259168 0.000222097 8.96734 -0.000228882 -0.000137329 -180 -36.1873 -86.508 -23.4585 -0.000338021 -0.000199028 8.85059 0.000298451 0.00012691 4.99092 -9.09469e-005 1.52467e-005 177.724 1.659 -86.887 29.5837 4.68616e-005 4.03338e-005 12.0179 1.14948e-005 0.000166508 12.8358 -0.000192911 0.000137221 177.724 63.3655 -87.7412 97.5535 0.000198196 -0.000256825 16.1115 1.44787e-006 0.000414805 16.9497 1.21178e-006 3.04935e-005 177.724 63.1717 -86.0873 97.118 -0.000143107 0.00030809 18.5243 0.000154904 4.12076e-005 16.7332 -0.000212411 3.04935e-005 177.724 
0 0 0 -90 -7.01671e-015 -180 -2.78332 -2.77761 -112.029 -176.648 -12.0921 -103.074 -0.174207 -0.382698 -22.6276 -3.30193 -2.66987 48.038 -0.571741 0.104699 57.7613 3.69261e-005 2.05814e-005 -86.4974 175.544 -1.93645 -104.845 -0.0177728 -0.062483 -19.8818 0.87373 -6.90517 46.9648 0.581512 -0.122588 56.7844 -9.64983e-005 -1.22945e-005 -86.4974 -0.00723864 0.00260353 121.668 -0.0189324 0.3637 -14.6974 1.50458 0.656809 -14.6493 -0.877848 2.28874 5.8889 -0.457012 1.26782 25.674 3.50108 -2.0835 47.2154 105.152 23.2401 -22.7929 60.164 21.1681 21.2672 -9.44644 17.1209 39.9747 -9.67068 -5.19928 -0.36151 -158.662 -1.2399 154.94 0.000477771 0.000147469 18.2144 0.000321649 -1.88181e-005 11.9796 0.000324612 -0.00142926 -0.0905683 36.1574 86.5034 -17.8643 0.00701904 0.00147998 14.4671 0.00877227 0.000638864 10.6019 0.0677148 -0.00314249 -2.32951 -1.69413 86.8815 35.1803 1.44302e-005 -0.000173956 17.6049 0.00109429 -0.000779855 18.4312 -0.0005835 -0.000185465 -2.32823 -63.3894 87.7449 103.138 0.000180425 -0.000791869 21.6888 0.00153022 -0.000239938 22.5323 -0.000678997 -0.000765607 -2.32752 -63.1843 86.0918 102.665 0.00132013 -0.0012765 24.0999 0.000755358 0.000208748 22.2913 -2.9804e-005 -0.000125824 -2.32871 -102.289 -22.8647 -25.3849 -65.274 -20.3808 13.6078 9.76491 -13.4157 35.2126 3.38186 12.6943 -3.92636 158.632 1.25427 152.058 2.20445e-005 0.000219738 15.1997 0.00025622 0.000220613 9.0094 -0.000228882 -0.000152588 -180 -36.9486 -86.499 -24.0905 -0.00033911 -0.00020479 8.93507 0.000299214 0.000126952 5.08839 -9.09609e-005 1.52473e-005 177.777 1.56744 -86.9031 29.5835 4.55698e-005 4.23421e-005 12.126 8.52878e-006 0.000166132 12.92 -0.000193037 0.000137226 177.777 63.3835 -87.7436 97.6528 0.000194902 -0.000255902 16.218 1.09625e-006 0.000414649 17.0323 1.18377e-006 3.04946e-005 177.777 63.147 -86.0778 97.1734 -0.000138255 0.000310342 18.6183 0.000150128 4.3561e-005 16.7897 -0.000212439 3.04946e-005 177.777 
0 0 0 -90 -7.01671e-015 -180 -2.78476 -2.79508 -111.8 -176.631 -12.0574 -102.817 -0.169514 -0.371126 -22.6437 -3.29693 -2.65941 48.0261 -0.571741 0.104699 57.7613 3.69347e-005 1.41208e-005 -86.4974 175.543 -1.94774 -104.598 -0.018307 -0.0639514 -19.8847 0.877829 -6.90689 46.9495 0.581512 -0.12259 56.7844 -9.65045e-005 -1.69662e-005 -86.4974 -0.0158797 0.00579277 121.674 -0.0129127 0.36764 -14.8019 1.50999 0.659957 -14.7544 -0.870136 2.2948 5.78324 -0.512979 1.23243 26.2341 3.47997 -2.0748 47.7107 105.209 23.2124 -22.9703 60.3451 20.7478 20.7319 -9.39472 16.4062 39.3727 -9.67274 -5.52499 -0.506689 -158.676 -1.2314 154.917 0.000476277 0.00014685 18.2243 0.000322825 -2.04508e-005 12.0091 0.000325784 -0.00141615 -0.1358 36.3097 86.4949 -18.0422 0.0107595 0.00244522 14.478 0.0125727 0.00135365 10.6128 0.101896 -0.00449675 -2.3299 -1.69495 86.8819 35.1374 2.25027e-005 -0.000178196 17.605 0.00109392 -0.000795525 18.4312 -0.000583482 -0.000197739 -2.32823 -63.2401 87.7368 102.943 0.000179053 -0.000793639 21.6836 0.0015309 -0.000241377 22.5254 -0.000678988 -0.000775209 -2.32752 -63.1906 86.0935 102.598 0.0013173 -0.00127532 24.0914 0.00108379 0.000347607 22.2863 -2.98642e-005 -0.000133005 -2.32871 -102.263 -22.8744 -25.3651 -65.2405 -20.4637 13.5185 9.78892 -13.3845 35.5885 3.06558 12.5206 -3.75628 158.616 1.25864 152.171 2.18097e-005 0.000218706 15.2055 0.000253963 0.000219405 9.07653 -0.000228882 -0.000167847 -180 -37.988 -86.4872 -24.9224 -0.000335241 -0.000206246 9.06989 0.000296357 0.000129742 5.27014 -9.09749e-005 1.52478e-005 177.83 1.42135 -86.9289 29.5832 4.69191e-005 4.39582e-005 12.2985 1.1342e-005 0.000170396 13.0771 -0.000193163 0.00013723 177.83 63.3255 -87.7395 97.7205 0.00349905 0.00119537 16.3829 -4.01434e-007 0.000420272 17.1862 1.15576e-006 3.04957e-005 177.83 63.0987 -86.0613 97.2462 -0.000135505 0.000312043 18.7683 0.000149255 4.62446e-005 16.946 -0.000212467 3.04957e-005 177.83 
